# xmcd
#
# Track frame offsets:
#	150
#	18671
#	32035
#	48149
#	64563
#	83386
#	101253
#	119901
#	134946
#	146580
#	160623
#	172645
#	188849
#	205417
#	221861
#	238881
#	254068
#	273057
#	286649
#
# Disc length: 4057 seconds
#
# Revision: 1
# Processed by: cddbd v1.4PL0 Copyright (c) Steve Scherf et al.
# Submitted via: audiograbber 1.80
#
DISCID=120fd713
DTITLE=Various Artist - Hott Country 014
DYEAR=1900
DGENRE=
TTITLE0=Rick Tippe - Rattlesnake Shake
TTITLE1=Clay Walker - Rumor Has It
TTITLE2=Tracy Lawrence - Better Man Better Off
TTITLE3=Buffalo CLub - If She Don't Love Me
TTITLE4=John Michael Montgomery - I Miss You A Little
TTITLE5=Dark Horse - Mila Mason
TTITLE6=Kathy Mattea - 455 Rocket
TTITLE7=Kevin Sharp - She's Sure Takin' It Well
TTITLE8=Bill Engvall/Travis Tritt - Here's Your Sign
TTITLE9=Bryan White - Sittin' On Go
TTITLE10=Mindy McCready - A Girl's Gotta Do
TTITLE11=Mark Willis - Places I've Never Been
TTITLE12=Aaron Tippin - That's What Happens When I Hold You
TTITLE13=Trisha Yearwood - I Need You
TTITLE14=Randy Travis - Price To Pay
TTITLE15=Michelle Wright - The Answer Is Yes
TTITLE16=Billy Ray Cyrus - Three Little Words
TTITLE17=George Ducas - Long Trail Of Tears
TTITLE18=George Fox - I Give You My Word
EXTD=
EXTT0=
EXTT1=
EXTT2=
EXTT3=
EXTT4=
EXTT5=
EXTT6=
EXTT7=
EXTT8=
EXTT9=
EXTT10=
EXTT11=
EXTT12=
EXTT13=
EXTT14=
EXTT15=
EXTT16=
EXTT17=
EXTT18=
PLAYORDER=
